<?xml version="1.0" encoding="UTF-8" standalone="no"?>
<svg
        id="svg"
        version="1.1"
        style="display:block"
        viewBox="0 0 146.16481 155.8054"
        width="300"
        height="300"
        xmlns="http://www.w3.org/2000/svg">
    <!--
      Pick with the rocket cut out. The cut-out is useful if we want to let the background shine through.
      The default color is Tailwind SKY 400
    -->
    <path
            id="pick"
            style="fill: #38bdf8"
            d="M 70.050781 0.017578125 C 61.556142 0.19034511 53.222873 1.6460613 45.724609 4.609375 C 42.996497 5.8134765 40.306497 6.9472129 37.498047 7.9570312 C 31.707268 10.007862 26.408693 12.119307 21.619141 16.082031 L 19.724609 17.796875 C -19.937541 53.167488 7.3757192 106.6166 38.962891 137.14062 C 40.335477 138.45305 41.696041 139.76872 43.025391 141.125 C 55.196487 153.60715 70.489357 160.35977 86.964844 152.31836 L 88.912109 151.35938 C 91.249947 150.24229 93.470325 149.08632 95.724609 147.79688 C 102.06592 142.08911 97.799728 146.4626 102.06445 142.08789 L 103.78711 140.48438 C 108.88513 135.7503 113.45059 130.85055 117.74023 125.37891 L 119.72461 122.79688 C 134.144 104.95439 145.57267 84.711738 146.13477 61.328125 L 146.16211 58.421875 C 146.41712 36.086343 133.34161 19.698441 113.79102 10.21875 L 110.72461 8.796875 C 98.81177 3.0045709 84.208513 -0.27036686 70.050781 0.017578125 z M 73.515625 16.890625 C 73.966354 16.836587 74.410906 16.903588 74.935547 17.099609 L 75.386719 17.285156 C 76.766148 17.951859 78.066447 18.765692 79.265625 19.712891 C 81.648056 21.575191 84.682895 24.610234 87.648438 29.423828 C 92.777923 37.747766 97.641269 51.257518 98.724609 72.994141 L 108.25391 84.566406 C 110.50843 87.367844 111.72191 90.880194 111.69531 94.527344 L 111.53125 115.71094 C 111.52364 118.81128 107.55603 120.20822 105.73438 117.75195 L 98.580078 108.25977 C 97.526146 106.85942 95.910605 105.73701 93.783203 104.69141 C 92.47006 104.06361 91.132542 103.48573 89.773438 102.95898 L 88.517578 102.45117 C 83.998316 105.28736 78.531287 106.7215 73.076172 106.82227 C 67.616577 106.92757 62.16922 105.70925 57.697266 103.04492 L 56.421875 103.60352 C 55.058209 104.18428 53.714859 104.81426 52.394531 105.49219 C 50.244 106.61934 48.613545 107.80287 47.535156 109.24609 L 40.228516 119.01562 C 38.360628 121.53452 34.429183 120.29695 34.470703 117.20312 L 34.634766 96.019531 C 34.666096 92.376213 35.927054 88.809835 38.230469 85.916016 L 38.255859 85.888672 L 47.962891 73.974609 C 49.394806 52.600556 54.458374 38.949405 59.693359 30.359375 C 62.725354 25.380798 65.796296 22.142575 68.185547 20.113281 C 69.380097 19.107519 70.398228 18.403742 71.148438 17.935547 C 71.523503 17.705893 71.832382 17.535299 72.064453 17.40625 C 72.608788 17.119885 73.064896 16.944665 73.515625 16.890625 z M 73.78125 23.791016 C 73.254419 24.160161 72.745339 24.554518 72.255859 24.972656 C 70.403871 26.547587 67.807156 29.23628 65.15625 33.589844 C 59.849118 42.305709 54.195116 57.856926 53.986328 84.714844 C 53.938948 90.224252 56.306298 94.169905 59.939453 96.757812 C 63.39606 99.216001 68.102707 100.49894 73.126953 100.40234 C 78.142315 100.30594 82.871651 98.834609 86.367188 96.25 C 90.041641 93.519641 92.475172 89.479933 92.513672 83.970703 C 92.731373 56.592857 87.320893 41.269999 82.15625 32.902344 C 79.58061 28.716162 77.03937 26.230188 75.230469 24.818359 C 74.765731 24.451178 74.28204 24.108293 73.78125 23.791016 z M 73.890625 39.248047 C 77.833753 39.172079 80.995095 43.373124 80.953125 48.634766 C 80.911166 53.896401 77.686045 58.224611 73.736328 58.300781 C 69.793203 58.376749 66.631242 54.175018 66.669922 48.910156 C 66.711881 43.648513 69.940912 39.324217 73.890625 39.248047 z M 73.755859 71.478516 L 81.630859 75.880859 L 73.880859 80.355469 L 66.130859 75.880859 L 73.755859 71.478516 z M 82.380859 77.179688 L 82.378906 86.070312 L 74.630859 90.601562 L 74.630859 81.654297 L 82.380859 77.179688 z M 65.380859 77.181641 L 73.130859 81.654297 L 73.130859 90.601562 L 65.398438 86.113281 L 65.380859 77.181641 z M 87.082031 107.74414 L 87.085938 107.75 L 87.082031 107.75195 C 86.497185 117.20299 73.929149 138.91364 72.814453 138.93164 C 71.694983 138.95414 57.671558 117.35853 58.240234 108.04492 C 63.017264 109.49285 68.01569 110.16594 73.048828 110.03906 C 77.794044 109.97262 82.523329 109.20185 87.082031 107.75195 C 87.082185 107.74895 87.081879 107.74614 87.082031 107.74414 z "/>
    <!-- Rocket. Can be removed in order to let the background shine through. -->
    <g
            id="rocket"
            style="fill: white">
        <!-- Main rocket shape (Bootstrap Icons Rocket Takeoff) -->
        <path
                id="rocket-main"
                d="m 73.515625,16.890625 c -0.450729,0.05404 -0.906837,0.22926 -1.451172,0.515625 -0.232071,0.129049 -0.540948,0.299643 -0.916015,0.529297 -0.75021,0.468195 -1.768341,1.171972 -2.962891,2.177734 -2.389251,2.029294 -5.460193,5.267517 -8.492188,10.246094 -5.234985,8.59003 -10.298553,22.241181 -11.730468,43.615234 l -9.707032,11.914063 -0.02539,0.02734 c -2.303415,2.893819 -3.564373,6.460197 -3.595703,10.103515 l -0.164063,21.183593 c -0.04152,3.09381 3.889925,4.33139 5.757813,1.8125 l 7.30664,-9.76953 c 1.078389,-1.44322 2.708844,-2.62675 4.859375,-3.7539 1.320328,-0.67793 2.663678,-1.30791 4.027344,-1.88867 l 1.275391,-0.5586 c 4.471954,2.66433 9.919311,3.88265 15.378906,3.77735 5.455115,-0.10077 10.922144,-1.53491 15.441406,-4.3711 l 1.25586,0.50781 c 1.359104,0.52675 2.696622,1.10463 4.009765,1.73243 2.127402,1.0456 3.742943,2.16801 4.796875,3.56836 l 7.154302,9.49218 c 1.82167,2.45627 5.78926,1.05933 5.79687,-2.04101 l 0.16406,-21.1836 c 0.0266,-3.64715 -1.18688,-7.1595 -3.4414,-9.960938 L 98.724609,72.994141 C 97.641269,51.257518 92.777925,37.747766 87.648438,29.423828 84.682895,24.610234 81.648056,21.575191 79.265625,19.712891 78.066447,18.765692 76.766148,17.951859 75.386719,17.285156 l -0.451172,-0.185547 c -0.524641,-0.196021 -0.969193,-0.263022 -1.419922,-0.208984 z m 0.265625,6.900391 c 0.50079,0.317277 0.984481,0.660162 1.449219,1.027343 1.808901,1.411829 4.350141,3.897803 6.925781,8.083985 5.164643,8.367655 10.575123,23.690513 10.357422,51.068359 -0.0385,5.50923 -2.472031,9.548938 -6.146484,12.279297 -3.495537,2.584609 -8.224873,4.05594 -13.240235,4.15234 -5.024246,0.0966 -9.730893,-1.186339 -13.1875,-3.644528 -3.633155,-2.587907 -6.000505,-6.53356 -5.953125,-12.042968 0.208788,-26.857918 5.86279,-42.409135 11.169922,-51.125 2.650906,-4.353564 5.247621,-7.042257 7.099609,-8.617188 0.48948,-0.418138 0.99856,-0.812495 1.525391,-1.18164 z m 0.109375,15.457031 c -3.949713,0.07617 -7.178744,4.400466 -7.220703,9.662109 -0.03868,5.264862 3.123281,9.466593 7.066406,9.390625 3.949717,-0.07617 7.174838,-4.40438 7.216797,-9.666015 0.04197,-5.261642 -3.119372,-9.462687 -7.0625,-9.386719 z m 13.191406,68.496093 c -1.52e-4,0.002 1.54e-4,0.005 0,0.008 l 0.0039,-0.002 z m 0,0.008 c -4.558702,1.4499 -9.287987,2.22067 -14.033203,2.28711 -5.033138,0.12688 -10.031564,-0.54621 -14.808594,-1.99414 -0.568676,9.31361 13.454749,30.90922 14.574219,30.88672 1.114696,-0.018 13.682732,-21.72865 14.267578,-31.17969 z"/>
        <!-- Box transported by the rocket (Tailwind LIME 200) -->
        <g
                id="rocket-box"
                style="fill: #D9F99D; opacity:0.8">
            <path
                    d="m 65.380545,77.18115 7.75,4.474 v 8.947 l -7.731568,-4.489256 z"
                    id="box-left"/>
            <path
                    d="m 66.130545,75.88115 7.75,4.474 7.75,-4.474 -7.875,-4.402 z"
                    id="box-top"/>
            <path
                    d="m 74.630545,81.65415 v 8.948 l 7.748769,-4.531605 0.0012,-8.890395 z"
                    id="box-right"/>
        </g>
    </g>
</svg>
