<?xml version="1.0" encoding="UTF-8" standalone="no"?>
<svg
        id="svg"
        version="1.1"
        style="display:block"
        viewBox="0 0 146.16481 155.8054"
        fill="#FCD34D"
        width="300"
        height="300"
        xmlns="http://www.w3.org/2000/svg">
    <path
            id="path981"
            style="opacity:1;fill-opacity:1"
            d="M 70.050781 0.017578125 C 61.556142 0.19034511 53.222873 1.6460613 45.724609 4.609375 C 42.996497 5.8134765 40.306497 6.9472129 37.498047 7.9570312 C 31.707268 10.007862 26.408693 12.119307 21.619141 16.082031 L 19.724609 17.796875 C -19.937541 53.167488 7.3757192 106.6166 38.962891 137.14062 C 40.335477 138.45305 41.696041 139.76872 43.025391 141.125 C 55.196487 153.60715 70.489357 160.35977 86.964844 152.31836 L 88.912109 151.35938 C 91.249947 150.24229 93.470325 149.08632 95.724609 147.79688 C 102.06592 142.08911 97.799728 146.4626 102.06445 142.08789 L 103.78711 140.48438 C 108.88513 135.7503 113.45059 130.85055 117.74023 125.37891 L 119.72461 122.79688 C 134.144 104.95439 145.57267 84.711738 146.13477 61.328125 L 146.16211 58.421875 C 146.41712 36.086343 133.34161 19.698441 113.79102 10.21875 L 110.72461 8.796875 C 98.81177 3.0045709 84.208513 -0.27036686 70.050781 0.017578125 z M 73.515625 16.890625 C 73.966354 16.836587 74.410906 16.903588 74.935547 17.099609 L 75.386719 17.285156 C 76.766148 17.951859 78.066447 18.765692 79.265625 19.712891 C 81.648056 21.575191 84.682895 24.610234 87.648438 29.423828 C 92.777923 37.747766 97.641269 51.257518 98.724609 72.994141 L 108.25391 84.566406 C 110.50843 87.367844 111.72191 90.880194 111.69531 94.527344 L 111.53125 115.71094 C 111.52364 118.81128 107.55603 120.20822 105.73438 117.75195 L 98.580078 108.25977 C 97.526146 106.85942 95.910605 105.73701 93.783203 104.69141 C 92.47006 104.06361 91.132542 103.48573 89.773438 102.95898 L 88.517578 102.45117 C 83.998316 105.28736 78.531287 106.7215 73.076172 106.82227 C 67.616577 106.92757 62.16922 105.70925 57.697266 103.04492 L 56.421875 103.60352 C 55.058209 104.18428 53.714859 104.81426 52.394531 105.49219 C 50.244 106.61934 48.613545 107.80287 47.535156 109.24609 L 40.228516 119.01562 C 38.360628 121.53452 34.429183 120.29695 34.470703 117.20312 L 34.634766 96.019531 C 34.666096 92.376213 35.927054 88.809835 38.230469 85.916016 L 38.255859 85.888672 L 47.962891 73.974609 C 49.394806 52.600556 54.458374 38.949405 59.693359 30.359375 C 62.725354 25.380798 65.796296 22.142575 68.185547 20.113281 C 69.380097 19.107519 70.398228 18.403742 71.148438 17.935547 C 71.523503 17.705893 71.832382 17.535299 72.064453 17.40625 C 72.608788 17.119885 73.064896 16.944665 73.515625 16.890625 z M 73.78125 23.791016 C 73.254419 24.160161 72.745339 24.554518 72.255859 24.972656 C 70.403871 26.547587 67.807156 29.23628 65.15625 33.589844 C 59.849118 42.305709 54.195116 57.856926 53.986328 84.714844 C 53.938948 90.224252 56.306298 94.169905 59.939453 96.757812 C 63.39606 99.216001 68.102707 100.49894 73.126953 100.40234 C 78.142315 100.30594 82.871651 98.834609 86.367188 96.25 C 90.041641 93.519641 92.475172 89.479933 92.513672 83.970703 C 92.731373 56.592857 87.320893 41.269999 82.15625 32.902344 C 79.58061 28.716162 77.03937 26.230188 75.230469 24.818359 C 74.765731 24.451178 74.28204 24.108293 73.78125 23.791016 z M 73.890625 39.248047 C 77.833753 39.172079 80.995095 43.373124 80.953125 48.634766 C 80.911166 53.896401 77.686045 58.224611 73.736328 58.300781 C 69.793203 58.376749 66.631242 54.175018 66.669922 48.910156 C 66.711881 43.648513 69.940912 39.324217 73.890625 39.248047 z M 73.755859 71.478516 L 81.630859 75.880859 L 73.880859 80.355469 L 66.130859 75.880859 L 73.755859 71.478516 z M 82.380859 77.179688 L 82.378906 86.070312 L 74.630859 90.601562 L 74.630859 81.654297 L 82.380859 77.179688 z M 65.380859 77.181641 L 73.130859 81.654297 L 73.130859 90.601562 L 65.398438 86.113281 L 65.380859 77.181641 z M 87.082031 107.74414 L 87.085938 107.75 L 87.082031 107.75195 C 86.497185 117.20299 73.929149 138.91364 72.814453 138.93164 C 71.694983 138.95414 57.671558 117.35853 58.240234 108.04492 C 63.017264 109.49285 68.01569 110.16594 73.048828 110.03906 C 77.794044 109.97262 82.523329 109.20185 87.082031 107.75195 C 87.082185 107.74895 87.081879 107.74614 87.082031 107.74414 z "/>
</svg>